# xmcd
#
# Track frame offsets:
#	150
#	11441
#	21981
#	35854
#	51861
#	62099
#	71283
#	84154
#	95740
#	107357
#	122680
#	134215
#	142961
#	153394
#	165632
#	177061
#	191757
#	203144
#	210854
#	218778
#	230353
#	244816
#	256616
#	267148
#	276469
#	286355
#	305654
#	316409
#
# Disc length: 4351 seconds
#
# Revision: 0
# Processed by: cddbd v1.5.2PL0 Copyright (c) Steve Scherf et al.
# Submitted via: EZCDAudioConverter 2.0.4.1
#
DISCID=9310fd1c
DTITLE=Various Artist - Hello Hell
DYEAR=1900
DGENRE=
TTITLE0=Jacks Freddy - Tijuana Grass
TTITLE1=Noack Eddie - Barbara Joy
TTITLE2=Spinks Dale - Hello Hell
TTITLE3=Lumpkins Clyde - Queen Of Skid Row
TTITLE4=Five Williamson Brothers - King Of The Winos
TTITLE5=Jackson Wanda - Jesus Put A Yodel In My Soul
TTITLE6=Raney Wayne - My Pot Of Love
TTITLE7=Flowers Vancie - Wet Back
TTITLE8=Davis Skeeter - Sun Glasses
TTITLE9=Jordan Merritt - My World Is Like The Night
TTITLE10=Johnson Don - I Have No Eyes
TTITLE11=Lewis Wink - Johnny's Shoes
TTITLE12=Tubb Ernest - I'm Gonna Make Like A Snake
TTITLE13=Ol' Thoroughbred - Bourbon Backlash
TTITLE14=Maves Sonny - One Hundred Proof
TTITLE15=Sewell Homer Lee - Ring Around The Bath Tub
TTITLE16=Johnson Hezie - Wedding Bells
TTITLE17=Johnson Hezie - Muddy Mississippi River
TTITLE18=Ju Di Lin Ra Fa - Who'll Be The First To The Moon
TTITLE19=Dycus Frank - Visit
TTITLE20=Price Bobby - Rush On For The Moon
TTITLE21=Carter June - Mama Teach Me
TTITLE22=Hagen Don - I'm Gonna See The Go Go Girls Tonight
TTITLE23=Hinds Ben - Christmas Go Go Girls
TTITLE24=Hunt Billy - Walls Are Closin' In
TTITLE25=Dry George - One Lung Charlie
TTITLE26=Williams Big Boy - Welder's Test
TTITLE27=Blaylock Fred Frank - Wanda's Secret Tattoo
EXTD=
EXTT0=
EXTT1=
EXTT2=
EXTT3=
EXTT4=
EXTT5=
EXTT6=
EXTT7=
EXTT8=
EXTT9=
EXTT10=
EXTT11=
EXTT12=
EXTT13=
EXTT14=
EXTT15=
EXTT16=
EXTT17=
EXTT18=
EXTT19=
EXTT20=
EXTT21=
EXTT22=
EXTT23=
EXTT24=
EXTT25=
EXTT26=
EXTT27=
PLAYORDER=
